<svg xmlns="http://www.w3.org/2000/svg" viewBox="0 0 250 250" width="48" height="48" >
      <defs>
          <filter id="blur-shadow" x="-20%" y="-20%" width="140%" height="140%">
            <feGaussianBlur in="SourceAlpha" stdDeviation="6"/> 
            <feOffset dx="0" dy="6" result="offsetblur"/>
            <feComponentTransfer>
              <feFuncA type="linear" slope="0.5"/>
            </feComponentTransfer>
            <feMerge> 
              <feMergeNode/> 
              <feMergeNode in="SourceGraphic"/>
            </feMerge>
          </filter>
        </defs>
        
        <g>
          <polygon points="72, 50, 102, 60, 62,160, 32,150" fill="#F5F5F5" stroke="black" stroke-width="0.7"/>
          <polygon points="74,130, 112,145, 112, 180, 32, 150" fill="white" stroke="black" stroke-width="1"/>
        </g>

        <g>
          <polygon points="124, 50, 124, 50, 124, 112, 94, 125" fill="#FF8C42" />
          <polygon points="152, 150, 162, 126, 124, 111, 94, 125" fill="orange" />
          <polygon points="132, 200, 132, 200, 158, 135, 124, 138" fill="#FF8C42"/>
        </g>

        <g>
          <polygon points="180, 200, 150, 190, 190, 90, 220, 100" fill="#F5F5F5" stroke="black" stroke-width="0.7"/>

          <polygon points="178,120, 140,105, 140,70, 220,100" fill="white" stroke="black" stroke-width="1"/>
        </g>
        
        <ellipse cx="115" cy="204" rx="52" ry="8" fill="white" opacity="0.3" filter="url(#blur-shadow)" stroke="black" stroke-width="0.7"/>
</svg>