<svg xmlns="http://www.w3.org/2000/svg" viewBox="0 0 256 257" width="100" height="100" preserveAspectRatio="xMidYMid meet" >
    <g>
    <!-- First polygon (grey) -->
    <polygon points="60, 50, 90, 60, 50,160, 20,150" fill="black" />

    <!-- Second polygon (black) -->
    <polygon points="62,130, 100,145, 100, 180, 20, 150" fill="black" />
  </g>

  <!--Lightning-->
  <polygon points="108, 50, 108, 50, 108, 112, 78, 125" fill="orange" />
  <polygon points="136, 150, 146, 126, 108, 111, 78, 125" fill="orange" />
  <polygon points="116, 200, 116, 200, 142, 135, 108, 138" fill="orange"/>

  <!-- Upside-down mirrored group on the right L -->
   <g>
    <!-- First polygon (grey) on the right, upside-down and moved down -->
    <polygon points="160, 200, 130, 190, 170, 90, 200, 100" fill="black" />

    <!-- Second polygon (black) on the right, upside-down and moved down -->
    <polygon points="158,120, 120,105, 120,70, 200,100" fill="black" />
  </g>

  <!-- Centered text -->
    <text x="1%" y="92%" font-family="Arial" font-size="48" fill="black">
        codifyweb
    </text>
</svg>
